<?xml version="1.0" encoding="UTF-8"?>
<svg version="1.1" xmlns="http://www.w3.org/2000/svg" width="1680" height="545">
<path d="M0 0 C-1.1282554 1.1282554 -2.25687314 2.25614956 -3.38671875 3.3828125 C-4.5402876 4.53917449 -5.68809309 5.70129744 -6.83203125 6.8671875 C-10.139117 10.21993321 -13.47124983 13.45161323 -17.0625 16.5 C-21.13497081 20.02894956 -24.57388173 23.84772949 -28 28 C-28.42265137 28.49967285 -28.84530273 28.9993457 -29.28076172 29.51416016 C-38.83057866 40.82569063 -48.47032836 53.17582089 -54 67 C-50.04 65.35 -46.08 63.7 -42 62 C-42 62.66 -42 63.32 -42 64 C-44.80376615 66.25363612 -47.66106897 68.38926777 -50.58398438 70.484375 C-57.83158155 75.91817561 -61.34140028 82.86787947 -64.375 91.25 C-64.66536133 92.04937988 -64.95572266 92.84875977 -65.25488281 93.67236328 C-76.23885468 125.09643318 -79.02825913 156.58854081 -79.31640625 189.56640625 C-79.33703846 191.58235539 -79.35803625 193.59830082 -79.37937927 195.61424255 C-79.4339543 200.85994413 -79.4836417 206.10568041 -79.53222656 211.35144043 C-79.58292042 216.72846479 -79.63835367 222.1054402 -79.69335938 227.48242188 C-79.80014818 237.98823921 -79.90176109 248.49409947 -80 259 C-89.84809714 259.39540064 -99.69428459 259.69666271 -109.54872608 259.88080692 C-114.12609022 259.96923834 -118.69799613 260.08891205 -123.2722168 260.2824707 C-152.73239226 261.49668473 -152.73239226 261.49668473 -159.66876221 257.43869019 C-163.61832069 253.62734652 -165.60675447 249.24290112 -167.28549194 244.0798645 C-168.24525374 241.28608986 -169.73080885 239.02057671 -171.390625 236.58984375 C-172.34539175 235.04007273 -173.29852619 233.48929488 -174.25 231.9375 C-175.34720229 230.15727222 -176.4448784 228.37733639 -177.54296875 226.59765625 C-178.10419434 225.68773926 -178.66541992 224.77782227 -179.24365234 223.84033203 C-188.2263969 209.31360834 -197.31832703 194.85337938 -206.46240234 180.42773438 C-208.09871472 177.84413795 -209.73091565 175.2579666 -211.36328125 172.671875 C-219.38705799 159.98540615 -227.62984465 147.4601562 -236 135 C-235.98143951 135.58944901 -235.96287903 136.17889801 -235.9437561 136.78620911 C-235.76314464 142.96830371 -235.68271235 149.14617016 -235.65820312 155.33081055 C-235.6362519 157.63262214 -235.58946971 159.93434478 -235.51660156 162.23510742 C-234.905155 182.3910067 -234.905155 182.3910067 -239.90234375 187.78930664 C-242.79248279 190.28414401 -245.92402286 192.21955366 -249.27435303 194.03518677 C-251.60720007 195.33948697 -253.61155102 196.94906124 -255.671875 198.64453125 C-257.03096003 199.70089401 -258.39033355 200.75688571 -259.75 201.8125 C-261.27996585 203.001279 -262.80991321 204.19008181 -264.33984375 205.37890625 C-265.1066748 205.97461426 -265.87350586 206.57032227 -266.66357422 207.18408203 C-269.00717053 209.00557308 -271.34949427 210.82868777 -273.69140625 212.65234375 C-282.43921871 219.46344233 -291.2019904 226.25382303 -300 233 C-296.76937369 231.60752984 -293.54059763 230.21082206 -290.3125 228.8125 C-289.30550049 228.37631348 -288.29850098 227.94012695 -287.26098633 227.49072266 C-281.18384607 224.84840768 -275.12571059 222.1677841 -269.0859375 219.44140625 C-268.42774521 219.14460464 -267.76955292 218.84780304 -267.09141541 218.54200745 C-263.83308617 217.07194255 -260.57694966 215.59725694 -257.32348633 214.11645508 C-255.54494263 213.31244263 -255.54494263 213.31244263 -253.73046875 212.4921875 C-252.14335083 211.77071533 -252.14335083 211.77071533 -250.52416992 211.03466797 C-248 210 -248 210 -246 210 C-248.01539405 216.78690892 -250.75583687 222.93599355 -254.0625 229.1875 C-254.79158569 230.56615234 -254.79158569 230.56615234 -255.53540039 231.97265625 C-262.33425221 244.58348321 -270.56809157 255.21419438 -280.52392578 265.47705078 C-281.93261078 266.93047074 -283.32419475 268.40040739 -284.71484375 269.87109375 C-304.68342492 290.54341346 -328.99666045 303.82713272 -356 313 C-357.00232666 313.3410376 -357.00232666 313.3410376 -358.02490234 313.68896484 C-368.62051717 317.24452195 -368.62051717 317.24452195 -374 317 C-370.60233677 313.58857486 -367.17194075 310.21450606 -363.71875 306.859375 C-346.33212152 289.86656352 -331.55951379 272.57420776 -320 251 C-320.69867188 251.30035156 -321.39734375 251.60070312 -322.1171875 251.91015625 C-323.48230469 252.48056641 -323.48230469 252.48056641 -324.875 253.0625 C-325.77992188 253.44535156 -326.68484375 253.82820312 -327.6171875 254.22265625 C-330 255 -330 255 -332 254 C-330.50133452 252.79001189 -329.00098114 251.58211435 -327.5 250.375 C-326.6646875 249.70210937 -325.829375 249.02921875 -324.96875 248.3359375 C-322 246 -322 246 -320.01831055 244.74145508 C-313.99724873 240.76824016 -311.98693189 236.70504043 -309.8125 229.9375 C-309.31907104 228.48972168 -309.31907104 228.48972168 -308.81567383 227.01269531 C-301.27194006 204.26862479 -296.93155949 180.43685155 -296.79467773 156.4699707 C-296.78477814 155.37596451 -296.77487854 154.28195831 -296.76467896 153.15480042 C-296.73337024 149.57848187 -296.70842906 146.00215009 -296.68359375 142.42578125 C-296.6629977 139.93043189 -296.64200057 137.43508581 -296.62062073 134.93974304 C-296.56567372 128.40177076 -296.51614476 121.86376843 -296.46777344 115.32574463 C-296.41785133 108.64226309 -296.36177671 101.95883074 -296.30664062 95.27539062 C-296.19939429 82.18363091 -296.09770053 69.09183426 -296 56 C-285.90892637 55.53464776 -275.82043509 55.18033222 -265.72078323 54.96375656 C-261.02921687 54.85974121 -256.34502995 54.71904444 -251.65771484 54.49121094 C-221.41582153 53.05909862 -221.41582153 53.05909862 -214.18084717 57.87753296 C-209.94286646 62.44480292 -207.80936543 67.51879608 -205.94955444 73.39506531 C-204.35156398 77.77886955 -201.7365931 81.47468311 -199.125 85.3125 C-198.57473145 86.1785083 -198.02446289 87.0445166 -197.45751953 87.93676758 C-197.02036621 88.62407959 -196.58321289 89.3113916 -196.1328125 90.01953125 C-192.68541492 95.47079707 -189.34150663 100.98340484 -186 106.5 C-180.26246664 115.96598793 -174.40753075 125.3493137 -168.46777344 134.68945312 C-165.97022156 138.62106173 -163.48582894 142.56097316 -161 146.5 C-157.89656444 151.4153507 -154.79173783 156.32981254 -151.68359375 161.2421875 C-151.14025391 162.10134766 -150.59691406 162.96050781 -150.03710938 163.84570312 C-148.99851439 165.48792597 -147.95947752 167.12986947 -146.91992188 168.77148438 C-146.45005859 169.51462891 -145.98019531 170.25777344 -145.49609375 171.0234375 C-145.08544678 171.67231934 -144.6747998 172.32120117 -144.25170898 172.98974609 C-142.8068076 175.31026843 -141.40112173 177.65283477 -140 180 C-139.95512451 179.14470703 -139.91024902 178.28941406 -139.86401367 177.40820312 C-137.56774381 134.92578096 -137.56774381 134.92578096 -131 128 C-128.92242019 126.24418155 -126.85192098 124.57647035 -124.6875 122.9375 C-123.4264934 121.9656087 -122.16609674 120.99292559 -120.90625 120.01953125 C-120.25914062 119.52146973 -119.61203125 119.0234082 -118.9453125 118.51025391 C-115.82667748 116.0890847 -112.76010915 113.6041113 -109.6875 111.125 C-103.53901544 106.18148264 -97.29283494 101.37550065 -91.01586914 96.59667969 C-81.13188463 89.23575927 -81.13188463 89.23575927 -72 81 C-72.7528125 81.36649658 -73.505625 81.73299316 -74.28125 82.1105957 C-91.09459363 90.28644112 -107.96163923 98.30063709 -125 106 C-126 103 -126 103 -124.6640625 99.76953125 C-123.9959356 98.44462747 -123.31532867 97.12597246 -122.625 95.8125 C-122.26212891 95.10778564 -121.89925781 94.40307129 -121.52539062 93.67700195 C-120.36538071 91.4429914 -119.18633721 89.22013148 -118 87 C-117.62456055 86.29456055 -117.24912109 85.58912109 -116.86230469 84.86230469 C-109.46826839 71.07342619 -100.79026924 59.30335121 -90 48 C-88.90558594 46.82630859 -88.90558594 46.82630859 -87.7890625 45.62890625 C-67.73795473 24.72059499 -30.07042245 -0.83528951 0 0 Z " fill="#000000" transform="translate(697,108)"/>
<path d="M0 0 C9.57 0 19.14 0 29 0 C29.33 5.94 29.66 11.88 30 18 C36.93 18.33 43.86 18.66 51 19 C51 28.24 51 37.48 51 47 C44.07 47 37.14 47 30 47 C30 58.88 30 70.76 30 83 C36.5370285 82.96041741 36.5370285 82.96041741 43.07397461 82.90991211 C43.88358643 82.90741455 44.69319824 82.90491699 45.52734375 82.90234375 C46.35999756 82.89710693 47.19265137 82.89187012 48.05053711 82.88647461 C50 83 50 83 51 84 C51.08767112 86.07262076 51.10695873 88.14820294 51.09765625 90.22265625 C51.09443359 91.48271484 51.09121094 92.74277344 51.08789062 94.04101562 C51.07953403 95.38151109 51.07106907 96.72200588 51.0625 98.0625 C51.0574866 99.40689942 51.05292342 100.7513006 51.04882812 102.09570312 C51.03699488 105.39717941 51.02050971 108.69856803 51 112 C47.22943831 112.11798604 43.45936235 112.18783864 39.6875 112.25 C38.63498047 112.28351563 37.58246094 112.31703125 36.49804688 112.3515625 C25.72911689 112.48410318 16.89692915 109.94292079 9.01171875 102.42578125 C2.72638067 94.84676194 -0.15793199 86.5405008 -0.11352539 76.85668945 C-0.11367142 76.02719788 -0.11381744 75.1977063 -0.1139679 74.34307861 C-0.11327092 71.59978628 -0.10548853 68.85656173 -0.09765625 66.11328125 C-0.09579131 64.21184832 -0.09436776 62.31041491 -0.09336853 60.40898132 C-0.08954936 55.40305252 -0.07972416 50.3971527 -0.06866455 45.39123535 C-0.05843756 40.28361402 -0.05386815 35.175988 -0.04882812 30.06835938 C-0.03810138 20.04555813 -0.0205094 10.02278601 0 0 Z " fill="#000000" transform="translate(1309,166)"/>
<path d="M0 0 C1.83111328 -0.02416992 1.83111328 -0.02416992 3.69921875 -0.04882812 C15.76239229 -0.05521076 28.48188408 0.81826255 37.75 9.3125 C48.30110614 20.64822852 48.90610598 31.40230963 48.8828125 46.3046875 C48.8834869 47.65992246 48.88445805 49.0151573 48.88571167 50.37039185 C48.88717924 53.19615848 48.88506246 56.02189333 48.88037109 58.84765625 C48.87464143 62.47606842 48.87797904 66.10440714 48.88394356 69.7328167 C48.88754671 72.52424683 48.8864123 75.31565935 48.88381577 78.10709 C48.88282232 80.09750669 48.88586428 82.08792407 48.88894653 84.07833862 C48.88421829 85.87623337 48.88421829 85.87623337 48.87939453 87.71044922 C48.87859894 88.77077362 48.87780334 89.83109802 48.87698364 90.92355347 C48.75 93.3125 48.75 93.3125 47.75 94.3125 C45.60441173 94.40025605 43.45595579 94.41945219 41.30859375 94.41015625 C40.00341797 94.40693359 38.69824219 94.40371094 37.35351562 94.40039062 C35.9648431 94.39203401 34.57617123 94.38356905 33.1875 94.375 C31.79492344 94.36998666 30.40234519 94.36542347 29.00976562 94.36132812 C25.5898013 94.34949434 22.16992156 94.3330088 18.75 94.3125 C18.74413376 93.58444656 18.73826752 92.85639313 18.73222351 92.10627747 C18.67424916 85.23519442 18.60214524 78.3643882 18.51428509 71.49362659 C18.46961336 67.96151334 18.43035062 64.42951456 18.40356445 60.8972168 C18.3725092 56.83352678 18.31772166 52.77045458 18.26171875 48.70703125 C18.25532883 47.4422847 18.2489389 46.17753815 18.24235535 44.87446594 C18.22256119 43.69361923 18.20276703 42.51277252 18.18237305 41.29614258 C18.17126999 40.25911697 18.16016693 39.22209137 18.14872742 38.15364075 C17.68630862 34.85866568 16.76076608 32.94955839 14.75 30.3125 C11.81521632 29.54124925 11.81521632 29.54124925 8.4375 29.6484375 C7.19742188 29.64199219 5.95734375 29.63554687 4.6796875 29.62890625 C3.38289062 29.64824219 2.08609375 29.66757813 0.75 29.6875 C-1.19519531 29.65849609 -1.19519531 29.65849609 -3.1796875 29.62890625 C-4.41976562 29.63535156 -5.65984375 29.64179688 -6.9375 29.6484375 C-8.07574219 29.65407715 -9.21398437 29.6597168 -10.38671875 29.66552734 C-13.39625259 30.02352816 -13.39625259 30.02352816 -14.90193176 32.47895813 C-16.41993924 35.66969998 -16.64469513 37.77702556 -16.68237305 41.29614258 C-16.70216721 42.47698929 -16.72196136 43.657836 -16.74235535 44.87446594 C-16.74874527 46.13921249 -16.75513519 47.40395905 -16.76171875 48.70703125 C-16.77966995 50.00952316 -16.79762115 51.31201508 -16.81611633 52.65397644 C-16.86350911 56.1045939 -16.89338725 59.55514646 -16.91955566 63.00598145 C-16.94941575 66.53211187 -16.99576717 70.05802338 -17.04101562 73.58398438 C-17.12847793 80.49350661 -17.18851183 87.40250236 -17.25 94.3125 C-26.49 94.3125 -35.73 94.3125 -45.25 94.3125 C-45.89340649 89.80865455 -46.38119341 85.94888188 -46.42700195 81.49169922 C-46.43983719 80.39300507 -46.45267242 79.29431091 -46.46589661 78.162323 C-46.47328354 76.99242828 -46.48067047 75.82253357 -46.48828125 74.6171875 C-46.496353 73.39274933 -46.50442474 72.16831116 -46.51274109 70.9067688 C-46.52653944 68.31969602 -46.53728049 65.73260537 -46.54516602 63.14550781 C-46.5566752 60.51752331 -46.57710987 57.88956198 -46.60668945 55.26171875 C-46.64963113 51.44254853 -46.66557251 47.62407001 -46.67578125 43.8046875 C-46.69328934 42.64693817 -46.71079742 41.48918884 -46.72883606 40.2963562 C-46.6974856 28.32004813 -44.23864376 18.02901072 -35.671875 9.40625 C-25.15855178 0.31731251 -13.39326279 -0.03491466 0 0 Z " fill="#000000" transform="translate(795.25,183.6875)"/>
<path d="M0 0 C2.00093689 -0.00218046 4.00183416 -0.02068039 6.00268555 -0.03930664 C17.94763067 -0.0572151 29.91204508 0.67425806 39.24682617 9.00952148 C51.09471006 21.86788587 50.51909323 37.12055314 50.39135742 53.62280273 C50.38451032 55.4183744 50.378001 57.21394738 50.37182617 59.00952148 C50.31358183 70.76242635 49.98583271 82.45567342 49.20385742 94.18530273 C39.63385742 94.18530273 30.06385742 94.18530273 20.20385742 94.18530273 C20.08268555 89.73288086 19.96151367 85.28045898 19.83666992 80.69311523 C19.73477219 77.1485708 19.63093164 73.60409518 19.52577209 70.05964661 C19.41520903 66.31502939 19.30809149 62.57038539 19.20922852 58.82543945 C19.11392012 55.22012598 19.00923547 51.6151969 18.89797592 48.01034164 C18.857138 46.63329484 18.81971013 45.25614264 18.78570938 43.87891006 C18.7376019 41.95361517 18.67636883 40.02866165 18.61450195 38.10375977 C18.56786911 36.45828659 18.56786911 36.45828659 18.52029419 34.77957153 C18.45478422 32.02536983 18.45478422 32.02536983 16.20385742 30.18530273 C11.57624626 29.6963693 6.91683059 29.81489579 2.26635742 29.81030273 C0.96504883 29.78581055 -0.33625977 29.76131836 -1.67700195 29.73608398 C-2.9215918 29.7322168 -4.16618164 29.72834961 -5.44848633 29.72436523 C-6.59309326 29.71614746 -7.7377002 29.70792969 -8.91699219 29.69946289 C-11.83726348 29.90561435 -11.83726348 29.90561435 -13.44906616 31.8430481 C-15.14272694 34.78793287 -15.19290903 36.75746884 -15.22851562 40.1472168 C-15.24830978 41.34815979 -15.26810394 42.54910278 -15.28849792 43.78643799 C-15.29488785 45.0782196 -15.30127777 46.37000122 -15.30786133 47.70092773 C-15.32471265 49.04044235 -15.34286352 50.37994119 -15.36225891 51.71942139 C-15.40971653 55.23745801 -15.43955286 58.75543069 -15.46569824 62.27368164 C-15.49552546 65.8667454 -15.5418874 69.45959333 -15.5871582 73.05249023 C-15.67470283 80.09677841 -15.7346811 87.14054517 -15.79614258 94.18530273 C-25.36614258 94.18530273 -34.93614258 94.18530273 -44.79614258 94.18530273 C-45.44770479 89.62436726 -45.9259769 85.73861218 -45.95727539 81.22509766 C-45.96688293 80.09669968 -45.97649048 78.9683017 -45.98638916 77.80570984 C-45.99063904 76.60453018 -45.99488892 75.40335052 -45.99926758 74.16577148 C-46.00496765 72.91202225 -46.01066772 71.65827301 -46.01654053 70.36653137 C-46.02596495 67.71974061 -46.03287521 65.0730625 -46.03637695 62.42626953 C-46.04076601 59.72919212 -46.05468285 57.03243382 -46.07739258 54.33544922 C-46.10797762 50.42462555 -46.11843778 46.51420169 -46.12426758 42.60327148 C-46.13661438 41.40816452 -46.14896118 40.21305756 -46.16168213 38.98173523 C-46.12956152 26.80333615 -43.59075293 18.37959605 -35.20239258 9.49780273 C-25.36016436 0.21268177 -12.82957724 -0.00156211 0 0 Z " fill="#000000" transform="translate(894.796142578125,183.814697265625)"/>
<path d="M0 0 C1.13308594 -0.00773438 2.26617188 -0.01546875 3.43359375 -0.0234375 C15.85482366 0.00501893 27.80297436 0.73204174 37.25 9.5 C44.69551309 17.38748419 46.0286682 26.18876041 45.85546875 36.66015625 C45.52341829 43.34179608 43.33617988 49.21013524 40.5 55.25 C40.10876953 56.1258374 39.71753906 57.0016748 39.31445312 57.90405273 C37.5 60.25 37.5 60.25 34.58911133 60.81762695 C33.4317749 60.79144287 32.27443848 60.76525879 31.08203125 60.73828125 C29.82841797 60.72216797 28.57480469 60.70605469 27.28320312 60.68945312 C25.97287109 60.64755859 24.66253906 60.60566406 23.3125 60.5625 C21.97725471 60.53741661 20.64196471 60.51460348 19.30664062 60.49414062 C16.03663293 60.43511522 12.76887667 60.35281476 9.5 60.25 C10.20151833 53.92827163 12.12298462 48.63471893 14.44140625 42.75 C15.56870859 39.02283064 15.83682729 36.12114179 15.5 32.25 C12.19318663 28.94318663 8.01577192 29.95338504 3.51757812 29.92773438 C2.21240234 29.93095703 0.90722656 29.93417969 -0.4375 29.9375 C-1.73880859 29.92138672 -3.04011719 29.90527344 -4.38085938 29.88867188 C-5.62544922 29.88802734 -6.87003906 29.88738281 -8.15234375 29.88671875 C-9.86925415 29.88224731 -9.86925415 29.88224731 -11.62084961 29.87768555 C-14.44144158 30.05232096 -14.44144158 30.05232096 -16.3762207 31.34643555 C-18.08974166 34.24896062 -17.85344947 36.72442589 -17.828125 40.0703125 C-17.82625183 40.72957733 -17.82437866 41.38884216 -17.82244873 42.06808472 C-17.81573708 43.45836461 -17.80183995 44.84862591 -17.78125 46.23876953 C-17.7500117 48.37420054 -17.74027048 50.50889411 -17.734375 52.64453125 C-18.32049628 58.92856748 -18.32049628 58.92856748 -16.5 64.25 C-14.53712234 64.37363297 -12.56984842 64.4279544 -10.60327148 64.45532227 C-9.34203964 64.47526749 -8.0808078 64.49521271 -6.78135681 64.51576233 C-5.39460373 64.53274795 -4.00784934 64.54962671 -2.62109375 64.56640625 C-1.2100411 64.58696926 0.20100529 64.60796555 1.61204529 64.62937927 C5.3323359 64.68466755 9.05268273 64.73404686 12.77307129 64.78222656 C17.23346884 64.84120703 21.69376332 64.907472 26.15407562 64.97252655 C32.93598764 65.07062105 39.7179647 65.15941868 46.5 65.25 C46.5 74.82 46.5 84.39 46.5 94.25 C30.18017114 94.41043524 30.18017114 94.41043524 23.171875 94.4453125 C18.40769413 94.46913496 13.64382358 94.49717931 8.87988281 94.55175781 C5.03487647 94.59552794 1.19020333 94.61920204 -2.65503311 94.62950897 C-4.11493289 94.63684494 -5.57481643 94.65116906 -7.0345726 94.67292023 C-18.32115258 94.83426021 -27.58011423 93.35322537 -36.61328125 86.15234375 C-47.61659862 75.0579016 -48.69843665 61.84216241 -48.74023438 47.02661133 C-48.74992812 44.95287767 -48.78101249 42.88014221 -48.8125 40.80664062 C-48.9065905 29.14806788 -47.54141851 20.03854297 -39.5 11.25 C-28.28215768 0.51988996 -14.89467098 -0.10167011 0 0 Z " fill="#000000" transform="translate(998.5,183.75)"/>
<path d="M0 0 C1.35380572 -0.00067461 2.70761132 -0.00164595 4.06141663 -0.00289917 C6.88120695 -0.0043652 9.70096537 -0.00225464 12.52075195 0.00244141 C16.14128838 0.00817659 19.76175129 0.00482907 23.38228512 -0.00113106 C26.16942405 -0.00473367 28.95654533 -0.00360015 31.74368477 -0.00100327 C33.72967197 -0.00001017 35.71565984 -0.00305124 37.7016449 -0.00613403 C38.8970137 -0.00298187 40.09238251 0.00017029 41.32397461 0.00341797 C42.38128281 0.00421356 43.438591 0.00500916 44.52793884 0.00582886 C46.91015625 0.1328125 46.91015625 0.1328125 47.91015625 1.1328125 C47.98340793 3.99548817 48.0025383 6.8335315 47.97265625 9.6953125 C47.96814453 10.50162109 47.96363281 11.30792969 47.95898438 12.13867188 C47.94716143 14.13675006 47.92922539 16.13479033 47.91015625 18.1328125 C45.60015625 18.4628125 43.29015625 18.7928125 40.91015625 19.1328125 C41.25949219 19.80828125 41.60882812 20.48375 41.96875 21.1796875 C42.42378906 22.07171875 42.87882812 22.96375 43.34765625 23.8828125 C43.80011719 24.76453125 44.25257812 25.64625 44.71875 26.5546875 C49.10593461 36.04826731 47.40735116 47.59140902 43.91015625 57.1328125 C39.43008616 66.21856212 32.33085377 71.75558131 22.91015625 75.1328125 C18.95107419 76.09555748 15.14575667 76.32378517 11.078125 76.44921875 C9.78583984 76.49111328 8.49355469 76.53300781 7.16210938 76.57617188 C5.80729433 76.61597602 4.45247658 76.65568841 3.09765625 76.6953125 C1.7232952 76.73854973 0.34894601 76.78216562 -1.02539062 76.82617188 C-4.38011044 76.9321104 -7.73490235 77.03418439 -11.08984375 77.1328125 C-11.58484375 78.6178125 -11.58484375 78.6178125 -12.08984375 80.1328125 C-11.05166504 80.16721436 -10.01348633 80.20161621 -8.94384766 80.23706055 C-5.04755032 80.37233638 -1.15302213 80.5381491 2.74169922 80.71264648 C4.4191073 80.78365214 6.09687573 80.84665876 7.77490234 80.90112305 C17.44087438 81.22063552 25.64887052 81.50737128 33.91015625 87.1328125 C34.83828125 87.7515625 35.76640625 88.3703125 36.72265625 89.0078125 C42.04351823 94.17664985 45.32578367 99.84212241 46.91015625 107.1328125 C46.92912596 108.79937121 46.93134536 110.46628053 46.91015625 112.1328125 C42.83508053 112.18228116 38.76012128 112.21856439 34.68481445 112.24267578 C33.29871577 112.2527282 31.91263826 112.2663722 30.52661133 112.28369141 C28.53345875 112.30797202 26.54015092 112.31823281 24.546875 112.328125 C22.74802856 112.34383545 22.74802856 112.34383545 20.9128418 112.35986328 C17.91015625 112.1328125 17.91015625 112.1328125 14.91015625 110.1328125 C12.33354917 109.91591272 9.85592402 109.80791288 7.27734375 109.7890625 C6.52607208 109.7744397 5.77480042 109.75981689 5.00076294 109.74475098 C2.59561516 109.69827349 0.19054653 109.66410761 -2.21484375 109.6328125 C-29.98751558 109.26664137 -29.98751558 109.26664137 -39.83984375 100.7578125 C-45.70855774 93.91097951 -47.48080099 88.95986386 -47.45703125 80.09375 C-46.94016812 75.92585368 -45.28347665 72.81969546 -43.18359375 69.2265625 C-41.85833472 67.08334123 -41.85833472 67.08334123 -42.08984375 64.1328125 C-42.97004527 62.24422476 -43.98851123 60.46626293 -45.01953125 58.65625 C-47.89228562 51.88325977 -48.43203982 44.91428923 -48.40234375 37.6328125 C-48.41845703 36.84261719 -48.43457031 36.05242187 -48.45117188 35.23828125 C-48.45985569 24.62665329 -44.6713689 17.05634287 -37.49609375 9.44140625 C-26.99800156 -0.43769465 -13.53981743 -0.02124838 0 0 Z M-18.08984375 33.1328125 C-18.6845738 36.29908496 -18.6845738 36.29908496 -18.52734375 39.6953125 C-18.52605469 40.83097656 -18.52476563 41.96664062 -18.5234375 43.13671875 C-18.32344025 46.04490111 -18.32344025 46.04490111 -16.97094727 47.79736328 C-14.18627516 49.7742817 -11.9439089 49.50464486 -8.55859375 49.49609375 C-6.63080078 49.49512695 -6.63080078 49.49512695 -4.6640625 49.49414062 C-3.99552246 49.48584229 -3.32698242 49.47754395 -2.63818359 49.46899414 C-0.59692923 49.44539442 1.4430188 49.44843597 3.484375 49.45507812 C10.59009089 49.73442016 10.59009089 49.73442016 16.91015625 47.1328125 C17.88044515 44.22194581 18.07483472 42.23057565 18.09765625 39.1953125 C18.11183594 38.34066406 18.12601563 37.48601562 18.140625 36.60546875 C17.89372919 33.95656965 17.33429306 32.36645865 15.91015625 30.1328125 C11.3425726 27.84902067 5.04974501 28.85758645 0.03515625 28.8203125 C-1.25777344 28.79130859 -2.55070312 28.76230469 -3.8828125 28.73242188 C-5.12417969 28.72404297 -6.36554688 28.71566406 -7.64453125 28.70703125 C-9.35358643 28.68515747 -9.35358643 28.68515747 -11.09716797 28.6628418 C-14.74132319 29.23512103 -15.89922685 30.21461779 -18.08984375 33.1328125 Z " fill="#000000" transform="translate(1098.08984375,183.8671875)"/>
<path d="M0 0 C1.20914062 0.00515625 2.41828125 0.0103125 3.6640625 0.015625 C12.07547251 0.32633672 19.46414262 3.18368626 25.9453125 8.63671875 C31.92769331 15.0850639 34.69682205 22.91761526 35.1640625 31.6171875 C34.65255212 42.16404439 31.13640529 50.75447047 26 60 C16.43 60 6.86 60 -3 60 C0.25806452 49.13978495 0.25806452 49.13978495 2.1875 44.3125 C3.80813544 39.92871217 4.59323849 36.64703488 4 32 C0.69318663 28.69318663 -3.48422808 29.70338504 -7.98242188 29.67773438 C-9.28759766 29.68095703 -10.59277344 29.68417969 -11.9375 29.6875 C-13.23880859 29.67138672 -14.54011719 29.65527344 -15.88085938 29.63867188 C-17.12544922 29.63802734 -18.37003906 29.63738281 -19.65234375 29.63671875 C-21.36925415 29.63224731 -21.36925415 29.63224731 -23.12084961 29.62768555 C-25.94431389 29.79987368 -25.94431389 29.79987368 -27.8762207 31.11230469 C-29.56126959 33.9428061 -29.35390392 36.29359408 -29.328125 39.56640625 C-29.32296875 40.85611328 -29.3178125 42.14582031 -29.3125 43.47460938 C-29.3021875 44.14516357 -29.291875 44.81571777 -29.28125 45.5065918 C-29.25005904 47.55861585 -29.24027435 49.60987161 -29.234375 51.66210938 C-29.53558107 58.0177219 -29.53558107 58.0177219 -28 64 C-27.22547989 64.01030746 -26.45095978 64.02061493 -25.65296936 64.03123474 C-18.36871079 64.12904297 -11.08454054 64.23153311 -3.80042362 64.33933926 C-0.05521202 64.39460231 3.69000734 64.44802755 7.43530273 64.49731445 C11.04688586 64.54490835 14.65837132 64.59724906 18.26983833 64.65294075 C19.65057519 64.67338694 21.03133886 64.69209622 22.41212273 64.70907402 C24.33983314 64.7330678 26.26745749 64.76370264 28.19506836 64.79467773 C29.29427109 64.81022202 30.39347382 64.8257663 31.52598572 64.84178162 C34 65 34 65 35 66 C35.09983058 67.98757028 35.13080753 69.9786752 35.1328125 71.96875 C35.13410156 73.17917969 35.13539062 74.38960938 35.13671875 75.63671875 C35.13285156 76.91160156 35.12898438 78.18648438 35.125 79.5 C35.12886719 80.77488281 35.13273437 82.04976563 35.13671875 83.36328125 C35.13542969 84.57371094 35.13414063 85.78414063 35.1328125 87.03125 C35.13168457 88.15080078 35.13055664 89.27035156 35.12939453 90.42382812 C35 93 35 93 34 94 C32.05908295 94.10979638 30.11414899 94.1491159 28.17016602 94.16113281 C26.2967025 94.17554413 26.2967025 94.17554413 24.38539124 94.19024658 C23.00823143 94.19509788 21.6310695 94.19937589 20.25390625 94.203125 C18.84439594 94.20887829 17.43488564 94.214636 16.02537537 94.22039795 C13.06028885 94.23092538 10.09522954 94.23675472 7.13012695 94.24023438 C3.35432185 94.2456833 -0.42111606 94.2696254 -4.19680691 94.29820633 C-7.11472057 94.31696726 -10.03254881 94.32204568 -12.95051765 94.32357025 C-14.34060711 94.3265737 -15.73069591 94.33452307 -17.12072563 94.34775543 C-30.45341193 94.46547777 -39.94604803 92.77430086 -49.6875 83.37109375 C-59.17256433 73.15093694 -59.28902216 61.45723805 -59.4050293 48.26757812 C-59.42651065 46.43665593 -59.46049514 44.60583364 -59.50756836 42.77539062 C-59.8203926 30.47616573 -59.72766196 20.39405819 -50.98876953 10.78955078 C-37.08383695 -2.56166167 -17.84978458 -0.26693893 0 0 Z " fill="#000000" transform="translate(1268,184)"/>
<path d="M0 0 C0 9.57 0 19.14 0 29 C-9.3125 29.3125 -9.3125 29.3125 -12.2355957 29.38793945 C-12.99960693 29.42105225 -13.76361816 29.45416504 -14.55078125 29.48828125 C-15.33106689 29.51446533 -16.11135254 29.54064941 -16.9152832 29.56762695 C-19.59467483 30.12333635 -20.34809638 30.82524309 -22 33 C-22.46719082 35.71603363 -22.46719082 35.71603363 -22.41650391 38.83251953 C-22.43307037 40.03031036 -22.44963684 41.2281012 -22.46670532 42.46218872 C-22.46995819 43.75599457 -22.47321106 45.04980042 -22.4765625 46.3828125 C-22.49087089 47.72136003 -22.50662762 49.05989279 -22.52377319 50.39840698 C-22.56562883 53.91938348 -22.59062596 57.44026845 -22.61126709 60.96142578 C-22.64708728 66.60477687 -22.70793889 72.24790247 -22.76975632 77.89101791 C-22.78889827 79.86586891 -22.80007749 81.84079183 -22.81118774 83.81570435 C-22.82658096 85.60293411 -22.82658096 85.60293411 -22.84228516 87.42626953 C-22.84878082 88.48089386 -22.85527649 89.53551819 -22.86196899 90.62210083 C-23 93 -23 93 -24 94 C-26.07262076 94.08767112 -28.14820294 94.10695873 -30.22265625 94.09765625 C-32.11274414 94.09282227 -32.11274414 94.09282227 -34.04101562 94.08789062 C-35.38151109 94.07953403 -36.72200588 94.07106907 -38.0625 94.0625 C-39.40689942 94.0574866 -40.7513006 94.05292342 -42.09570312 94.04882812 C-45.39717941 94.03699488 -48.69856803 94.02050971 -52 94 C-53.10602768 86.81165501 -53.19499649 79.70989429 -53.23828125 72.4453125 C-53.246353 71.14858612 -53.25442474 69.85185974 -53.26274109 68.51583862 C-53.27768118 65.78090555 -53.28756163 63.0459976 -53.29516602 60.31103516 C-53.30623293 56.83236924 -53.34067195 53.3543424 -53.38033772 49.87590218 C-53.41297388 46.52406661 -53.41729413 43.17229449 -53.42578125 39.8203125 C-53.44328934 38.58459503 -53.46079742 37.34887756 -53.47883606 36.07571411 C-53.45147466 25.08961595 -50.88377511 17.02700833 -43.29296875 8.98046875 C-36.85719382 3.42180114 -29.48127581 0.98474052 -21.125 0.4375 C-19.30355469 0.31181641 -19.30355469 0.31181641 -17.4453125 0.18359375 C-11.63483977 -0.05638184 -5.81542618 0 0 0 Z " fill="#000000" transform="translate(1204,184)"/>
<path d="M0 0 C6.27 0 12.54 0 19 0 C19 1.65 19 3.3 19 5 C16.69 5 14.38 5 12 5 C12 13.25 12 21.5 12 30 C13.98 30 15.96 30 18 30 C18.33 31.65 18.66 33.3 19 35 C12.73 35 6.46 35 0 35 C0 33.68 0 32.36 0 31 C2.31 31 4.62 31 7 31 C7 22.42 7 13.84 7 5 C4.69 5 2.38 5 0 5 C0 3.35 0 1.7 0 0 Z " fill="#000000" transform="translate(750,329)"/>
<path d="M0 0 C6 0 6 0 7.56738281 1.26928711 C7.94217773 1.8494458 8.31697266 2.42960449 8.703125 3.02734375 C9.1259375 3.65447266 9.54875 4.28160156 9.984375 4.92773438 C10.40203125 5.59095703 10.8196875 6.25417969 11.25 6.9375 C13.97159813 11.6499042 13.97159813 11.6499042 18 15 C18.25136719 14.44699219 18.50273438 13.89398438 18.76171875 13.32421875 C20.21550508 10.59550309 21.92228558 8.25929764 23.8125 5.8125 C24.47894531 4.93207031 25.14539063 4.05164063 25.83203125 3.14453125 C28 1 28 1 33 0 C33 11.55 33 23.1 33 35 C31.35 35 29.7 35 28 35 C28 27.74 28 20.48 28 13 C27.34 13 26.68 13 26 13 C25.73445312 13.57234375 25.46890625 14.1446875 25.1953125 14.734375 C23.94323109 17.1076012 22.5063648 19.12213286 20.875 21.25 C20.33617187 21.95640625 19.79734375 22.6628125 19.2421875 23.390625 C18.83226562 23.92171875 18.42234375 24.4528125 18 25 C14.21859472 23.73953157 13.55893684 22.27125859 11.375 19 C9.37387211 15.85077459 9.37387211 15.85077459 7 13 C6.67 20.26 6.34 27.52 6 35 C4.02 35 2.04 35 0 35 C0 23.45 0 11.9 0 0 Z " fill="#000000" transform="translate(770,329)"/>
<path d="M0 0 C2.29174805 0.0925293 2.29174805 0.0925293 5 1 C6.39527888 3.22165228 7.36011822 5.11936206 8.33203125 7.51953125 C8.6135051 8.17451096 8.89497894 8.82949066 9.1849823 9.50431824 C9.77617841 10.89008126 10.35811345 12.27982668 10.93139648 13.6730957 C11.80831153 15.80233 12.71281482 17.91802768 13.62304688 20.03320312 C14.19436892 21.38211037 14.76408462 22.73169934 15.33203125 24.08203125 C15.60070511 24.71446243 15.86937897 25.34689362 16.14619446 25.99848938 C17.49379561 29.29443223 18 31.36310834 18 35 C16.35 35 14.7 35 13 35 C11.68 32.36 10.36 29.72 9 27 C4.38 27 -0.24 27 -5 27 C-6.32 29.64 -7.64 32.28 -9 35 C-10.65 35 -12.3 35 -14 35 C-10.73349441 22.82223792 -5.91551212 11.12430377 0 0 Z M1 9 C0.32880451 10.4562545 -0.33681807 11.91507867 -1 13.375 C-1.37125 14.18710937 -1.7425 14.99921875 -2.125 15.8359375 C-3.12495013 17.91998433 -3.12495013 17.91998433 -3 20 C0.3 20 3.6 20 7 20 C6.38348417 18.3509698 5.75652258 16.70584159 5.125 15.0625 C4.77695312 14.14597656 4.42890625 13.22945313 4.0703125 12.28515625 C3.2180914 9.85058944 3.2180914 9.85058944 1 9 Z " fill="#000000" transform="translate(819,329)"/>
<path d="M0 0 C1.03769531 -0.02578125 2.07539062 -0.0515625 3.14453125 -0.078125 C7.26691715 0.36639415 9.78247862 1.88755503 12.734375 4.75 C14.73456987 7.24374944 16.16869782 9.19359346 17.1875 12.25 C16.1875 13.25 16.1875 13.25 13.875 13.6875 C11.1875 13.25 11.1875 13.25 9 10.3125 C8.401875 9.301875 7.80375 8.29125 7.1875 7.25 C3.49024625 5.40137312 -0.77711442 5.77412906 -4.8125 6.25 C-7.74673195 8.04646854 -9.28455355 9.1941071 -10.8125 12.25 C-11.23558538 16.84698532 -11.35144467 20.95653278 -9.5625 25.25 C-7.23436799 27.9107223 -5.11926789 29.02791959 -1.62890625 29.62109375 C2.80115149 29.75161538 4.5866145 29.72570102 8.1875 26.875 C10.16738444 24.44550917 10.16738444 24.44550917 11.1875 22.25 C6.5675 22.25 1.9475 22.25 -2.8125 22.25 C-2.4825 20.6 -2.1525 18.95 -1.8125 17.25 C4.4575 17.25 10.7275 17.25 17.1875 17.25 C17.1875 26.4261194 17.1875 26.4261194 13.1875 31.25 C7.99475019 35.46910922 3.60988231 35.81801994 -3.00390625 35.5703125 C-7.97618045 35.00323811 -10.70595398 33.44875819 -14.0625 29.8125 C-17.8968178 24.19796322 -18.47663881 19.99850727 -17.8125 13.25 C-16.00755572 7.72899398 -12.36627265 4.61869447 -7.8125 1.25 C-5.13594199 -0.08827901 -2.98815948 0.04421444 0 0 Z " fill="#000000" transform="translate(854.8125,328.75)"/>
<path d="M0 0 C0.87454834 0.00523682 1.74909668 0.01047363 2.65014648 0.01586914 C3.59438477 0.0190918 4.53862305 0.02231445 5.51147461 0.02563477 C6.50469727 0.03401367 7.49791992 0.04239258 8.52124023 0.05102539 C9.51833008 0.05553711 10.51541992 0.06004883 11.54272461 0.06469727 C14.01478872 0.07652532 16.48673541 0.0930069 18.95874023 0.11352539 C18.95874023 1.76352539 18.95874023 3.41352539 18.95874023 5.11352539 C13.67874023 5.11352539 8.39874023 5.11352539 2.95874023 5.11352539 C2.95874023 8.41352539 2.95874023 11.71352539 2.95874023 15.11352539 C8.23874023 15.11352539 13.51874023 15.11352539 18.95874023 15.11352539 C18.62874023 16.76352539 18.29874023 18.41352539 17.95874023 20.11352539 C13.00874023 20.11352539 8.05874023 20.11352539 2.95874023 20.11352539 C2.95874023 23.41352539 2.95874023 26.71352539 2.95874023 30.11352539 C3.85077148 30.10192383 4.74280273 30.09032227 5.66186523 30.07836914 C6.83233398 30.0693457 8.00280273 30.06032227 9.20874023 30.05102539 C10.36889648 30.03942383 11.52905273 30.02782227 12.72436523 30.01586914 C15.36851151 30.09570448 17.45700115 30.32708761 19.95874023 31.11352539 C19.95874023 32.43352539 19.95874023 33.75352539 19.95874023 35.11352539 C12.69874023 35.11352539 5.43874023 35.11352539 -2.04125977 35.11352539 C-2.20671769 30.28979045 -2.36910198 25.46616354 -2.5234375 20.64208984 C-2.57692936 18.99977605 -2.63226408 17.35752124 -2.68945312 15.71533203 C-2.77116455 13.35991133 -2.84632616 11.00436057 -2.92016602 8.64868164 C-2.94720108 7.91013443 -2.97423615 7.17158722 -3.00209045 6.41065979 C-3.05420357 4.64566923 -3.05312097 2.87924529 -3.04125977 1.11352539 C-2.04125977 0.11352539 -2.04125977 0.11352539 0 0 Z " fill="#000000" transform="translate(877.041259765625,328.886474609375)"/>
<path d="M0 0 C0.75603516 -0.03738281 1.51207031 -0.07476562 2.29101562 -0.11328125 C6.43660952 -0.17799998 9.02343535 0.10808479 12.30078125 2.7734375 C15.74509664 6.34095546 16.16109983 8.35108451 16.09765625 13.3359375 C15.64435889 16.57732413 14.17661442 18.20789511 11.8125 20.375 C9.671875 21.00390625 9.671875 21.00390625 7.8125 21.375 C8.88911281 22.8175402 9.97410103 24.25383161 11.0625 25.6875 C11.66578125 26.48800781 12.2690625 27.28851563 12.890625 28.11328125 C14.95637926 30.71323143 14.95637926 30.71323143 18.8125 33.375 C18.8125 22.485 18.8125 11.595 18.8125 0.375 C27.7225 0.375 36.6325 0.375 45.8125 0.375 C49.54935652 8.27335583 52.99463887 16.10374879 55.8125 24.375 C56.34359375 23.3128125 56.8746875 22.250625 57.421875 21.15625 C60.88541667 14.22916667 64.34895833 7.30208333 67.8125 0.375 C69.4625 0.375 71.1125 0.375 72.8125 0.375 C72.24075496 4.8770718 71.06165731 8.44695125 69.125 12.54296875 C68.59132813 13.68314453 68.05765625 14.82332031 67.5078125 15.99804688 C66.94835937 17.17431641 66.38890625 18.35058594 65.8125 19.5625 C64.70709575 21.90957378 63.60287194 24.25720399 62.5 26.60546875 C62.00886719 27.64082764 61.51773438 28.67618652 61.01171875 29.74291992 C59.74642392 32.39728317 59.74642392 32.39728317 58.8125 35.375 C57.1625 35.375 55.5125 35.375 53.8125 35.375 C50.71015641 28.7557139 47.80197667 22.06339864 45 15.3125 C44.68603271 14.56234619 44.37206543 13.81219238 44.04858398 13.03930664 C41.8125 7.61306791 41.8125 7.61306791 41.8125 5.375 C36.2025 5.375 30.5925 5.375 24.8125 5.375 C24.8125 8.675 24.8125 11.975 24.8125 15.375 C29.7625 15.375 34.7125 15.375 39.8125 15.375 C39.8125 17.025 39.8125 18.675 39.8125 20.375 C34.8625 20.375 29.9125 20.375 24.8125 20.375 C24.8125 23.675 24.8125 26.975 24.8125 30.375 C30.0925 30.375 35.3725 30.375 40.8125 30.375 C40.8125 32.025 40.8125 33.675 40.8125 35.375 C36.70579714 35.62458923 32.60209349 35.80469478 28.48950195 35.92431641 C27.09516449 35.97422342 25.70134022 36.04218831 24.30883789 36.12939453 C12.78036363 36.83260251 12.78036363 36.83260251 7.93701172 33.24511719 C5.65320537 30.7248316 3.70539456 28.19695728 1.8125 25.375 C0.95507202 24.34753662 0.95507202 24.34753662 0.08032227 23.29931641 C-1.1875 21.375 -1.1875 21.375 -1.1875 17.375 C0.070625 17.271875 1.32875 17.16875 2.625 17.0625 C5.1421463 16.73223612 6.65743363 16.46428064 8.875 15.1875 C10.31973717 12.39434148 9.58333666 10.32987388 8.8125 7.375 C5.94505824 4.50755824 0.85102125 5.7421383 -3.1875 5.375 C-3.1875 15.275 -3.1875 25.175 -3.1875 35.375 C-4.8375 35.375 -6.4875 35.375 -8.1875 35.375 C-8.354747 30.551384 -8.51534308 25.72761089 -8.66967773 20.90356445 C-8.72316959 19.26125066 -8.77850431 17.61899584 -8.83569336 15.97680664 C-8.91740479 13.62138594 -8.99256639 11.26583518 -9.06640625 8.91015625 C-9.09344131 8.17160904 -9.12047638 7.43306183 -9.14833069 6.6721344 C-9.2004438 4.90714384 -9.1993612 3.1407199 -9.1875 1.375 C-7.09197518 -0.72052482 -2.87143017 0.05251161 0 0 Z " fill="#000000" transform="translate(926.1875,328.625)"/>
<path d="M0 0 C7.59 0 15.18 0 23 0 C22.67 1.65 22.34 3.3 22 5 C16.72 5 11.44 5 6 5 C6 8.3 6 11.6 6 15 C11.28 15 16.56 15 22 15 C22 16.65 22 18.3 22 20 C16.72 20.33 11.44 20.66 6 21 C5.67 23.97 5.34 26.94 5 30 C6.57201172 29.96519531 6.57201172 29.96519531 8.17578125 29.9296875 C9.55468037 29.91092697 10.9335872 29.89272707 12.3125 29.875 C13.00279297 29.85824219 13.69308594 29.84148437 14.40429688 29.82421875 C18.17135396 29.78782206 19.78431704 29.85621136 23 32 C23 32.99 23 33.98 23 35 C15.41 35 7.82 35 0 35 C0 23.45 0 11.9 0 0 Z " fill="#000000" transform="translate(1000,329)"/>
<path d="M0 0 C17 0 17 0 22 3 C24.33163242 5.33163242 24.9385006 6.59586111 25.4375 9.875 C24.77335289 14.61890795 22.61299117 17.73727516 18.859375 20.67578125 C17.93898438 21.33126953 17.93898438 21.33126953 17 22 C17.6496875 22.85464844 18.299375 23.70929688 18.96875 24.58984375 C19.81262529 25.70563442 20.6563685 26.82152499 21.5 27.9375 C21.92925781 28.50146484 22.35851563 29.06542969 22.80078125 29.64648438 C26 33.88671875 26 33.88671875 26 35 C21.16483516 36.05494505 21.16483516 36.05494505 18 35 C15.27445347 32.08164954 13.19916034 29.14245955 10.98046875 25.8203125 C9.13256543 22.8268184 9.13256543 22.8268184 6 21 C6 25.62 6 30.24 6 35 C4.02 35 2.04 35 0 35 C0 23.45 0 11.9 0 0 Z M6 5 C6 8.96 6 12.92 6 17 C11.95008735 17.38810153 11.95008735 17.38810153 17.5625 15.875 C19.25060967 13.98864997 19.25060967 13.98864997 19.4375 11 C19.24507164 8.07023237 19.24507164 8.07023237 17.796875 6.32421875 C15.37084019 4.53633657 13.79122294 4.69644586 10.8125 4.8125 C9.224375 4.874375 7.63625 4.93625 6 5 Z " fill="#000000" transform="translate(1025,329)"/>
<path d="M0 0 C4.28747299 1.69712473 5.91682406 3.94328896 8 8 C7.01 8.66 6.02 9.32 5 10 C2 9 2 9 0.63671875 7.44921875 C-1.64924208 5.4251341 -3.18889659 5.6956713 -6.1875 5.8125 C-7.08855469 5.83957031 -7.98960938 5.86664063 -8.91796875 5.89453125 C-9.60503906 5.92933594 -10.29210938 5.96414063 -11 6 C-11 7.98 -11 9.96 -11 12 C-10.04738281 12.24234375 -9.09476563 12.4846875 -8.11328125 12.734375 C-6.85902344 13.06953125 -5.60476563 13.4046875 -4.3125 13.75 C-3.07113281 14.07484375 -1.82976562 14.3996875 -0.55078125 14.734375 C3.60385788 16.21523647 6.97257442 17.94514885 9 22 C9.54354028 25.98596202 9.15681906 27.7281803 7.125 31.25 C4.1261985 34.46058127 0.90401515 35.31773543 -3.36328125 35.94921875 C-7.65766714 36.03192544 -11.22543738 35.02265592 -15 33 C-17.0625 31 -17.0625 31 -18 29 C-18 28.01 -18 27.02 -18 26 C-16.02 25.67 -14.04 25.34 -12 25 C-11.67 25.99 -11.34 26.98 -11 28 C-7.01920315 29.63915164 -4.77146887 30.19637389 -0.5625 29.125 C0.283125 28.75375 1.12875 28.3825 2 28 C2 26.35 2 24.7 2 23 C-0.99755088 21.31777168 -3.54720868 20.66287213 -6.9375 20.1875 C-11.67157179 19.28676953 -14.13783963 18.06242117 -17 14 C-18.0625 11.0625 -18.0625 11.0625 -18 8 C-13.54415962 -0.27513214 -8.75512052 -0.82159489 0 0 Z " fill="#000000" transform="translate(1069,329)"/>
<path d="M0 0 C6.93 0 13.86 0 21 0 C21.33 1.32 21.66 2.64 22 4 C21 5 21 5 17.62109375 5.09765625 C16.22652923 5.09098369 14.83198257 5.07902532 13.4375 5.0625 C12.72658203 5.05798828 12.01566406 5.05347656 11.28320312 5.04882812 C9.52209987 5.03700864 7.76103964 5.01907263 6 5 C6 7.97 6 10.94 6 14 C10.95 14.33 15.9 14.66 21 15 C21 16.65 21 18.3 21 20 C16.05 20 11.1 20 6 20 C5.67 23.3 5.34 26.6 5 30 C10.28 30 15.56 30 21 30 C21.33 31.65 21.66 33.3 22 35 C14.74 35 7.48 35 0 35 C0 23.45 0 11.9 0 0 Z " fill="#000000" transform="translate(1080,329)"/>
<path d="M0 0 C6.27 0 12.54 0 19 0 C19 1.65 19 3.3 19 5 C16.69 5 14.38 5 12 5 C12 13.25 12 21.5 12 30 C13.65 30 15.3 30 17 30 C17.33 31.65 17.66 33.3 18 35 C11.73 35 5.46 35 -1 35 C-1 33.68 -1 32.36 -1 31 C2.465 30.505 2.465 30.505 6 30 C6.33 21.75 6.66 13.5 7 5 C4.36 5 1.72 5 -1 5 C-0.67 3.35 -0.34 1.7 0 0 Z " fill="#000000" transform="translate(1122,329)"/>
<path d="M0 0 C1.65 0 3.3 0 5 0 C6.73828125 2.01953125 6.73828125 2.01953125 8.3125 4.8125 C11.86597847 10.83932472 15.83735122 16.3767727 20 22 C20.33 15.07 20.66 8.14 21 1 C22.65 0.67 24.3 0.34 26 0 C26.97685365 4.0730403 27.11545444 7.868207 27.09765625 12.05078125 C27.0962413 12.70958786 27.09482635 13.36839447 27.09336853 14.04716492 C27.087805 16.13565762 27.07525947 18.22404011 27.0625 20.3125 C27.05748028 21.73502449 27.0529182 23.15755066 27.04882812 24.58007812 C27.03784757 28.05342077 27.02060835 31.52669961 27 35 C24.2121582 35.25317383 24.2121582 35.25317383 21 35 C19.14135742 33.3034668 19.14135742 33.3034668 17.60546875 30.94921875 C17.04279297 30.10552734 16.48011719 29.26183594 15.90039062 28.39257812 C15.33513672 27.49990234 14.76988281 26.60722656 14.1875 25.6875 C13.31061523 24.36588867 13.31061523 24.36588867 12.41601562 23.01757812 C8.19553326 16.58659978 8.19553326 16.58659978 7 13 C6.34 13 5.68 13 5 13 C5 20.26 5 27.52 5 35 C3.35 35 1.7 35 0 35 C0 23.45 0 11.9 0 0 Z " fill="#000000" transform="translate(1143,329)"/>
<path d="M0 0 C6.93 0 13.86 0 21 0 C21 1.65 21 3.3 21 5 C16.05 5.33 11.1 5.66 6 6 C6 8.64 6 11.28 6 14 C10.95 14.33 15.9 14.66 21 15 C20.67 16.65 20.34 18.3 20 20 C15.05 20 10.1 20 5 20 C5 24.95 5 29.9 5 35 C3.35 35 1.7 35 0 35 C0 23.45 0 11.9 0 0 Z " fill="#000000" transform="translate(1173,329)"/>
<path d="M0 0 C7.59 0 15.18 0 23 0 C22.67 1.65 22.34 3.3 22 5 C16.72 5 11.44 5 6 5 C6 8.3 6 11.6 6 15 C10.95 15 15.9 15 21 15 C21.33 16.32 21.66 17.64 22 19 C21 20 21 20 17.62109375 20.09765625 C16.22652923 20.09098369 14.83198257 20.07902532 13.4375 20.0625 C12.72658203 20.05798828 12.01566406 20.05347656 11.28320312 20.04882812 C9.52209987 20.03700864 7.76103964 20.01907263 6 20 C6.33 23.3 6.66 26.6 7 30 C7.73605469 29.98839844 8.47210937 29.97679687 9.23046875 29.96484375 C10.20628906 29.95582031 11.18210937 29.94679688 12.1875 29.9375 C13.15042969 29.92589844 14.11335938 29.91429687 15.10546875 29.90234375 C17.85576513 29.99513378 20.32479591 30.37888315 23 31 C23 32.32 23 33.64 23 35 C15.74 35 8.48 35 1 35 C0.3044178 30.13092462 -0.1199229 26.02326863 -0.09765625 21.19140625 C-0.09443359 19.95068359 -0.09121094 18.70996094 -0.08789062 17.43164062 C-0.07951172 16.15482422 -0.07113281 14.87800781 -0.0625 13.5625 C-0.05798828 12.25861328 -0.05347656 10.95472656 -0.04882812 9.61132812 C-0.03709261 6.40753223 -0.0191587 3.2037601 0 0 Z " fill="#000000" transform="translate(1196,329)"/>
<path d="M0 0 C2.84625 -0.0825 5.6925 -0.165 8.625 -0.25 C9.51010254 -0.28641602 10.39520508 -0.32283203 11.30712891 -0.36035156 C16.69213679 -0.43549684 19.75277203 0.38223639 24 4 C25.77665262 6.93533911 26.01779354 8.5729551 25.875 12 C24.85147696 15.50922186 23.57842877 17.42157123 21 20 C18.86328125 20.63671875 18.86328125 20.63671875 17 21 C17.48210937 21.67546875 17.96421875 22.3509375 18.4609375 23.046875 C19.09257813 23.93890625 19.72421875 24.8309375 20.375 25.75 C21.00148438 26.63171875 21.62796875 27.5134375 22.2734375 28.421875 C23.71480941 30.57414979 24.91498093 32.65460523 26 35 C22.87109375 35.421875 22.87109375 35.421875 19 35 C16.54786746 33.09782981 14.86240327 30.75940871 13.0625 28.25 C12.56943359 27.61578125 12.07636719 26.9815625 11.56835938 26.328125 C8 21.57691141 8 21.57691141 8 17 C9.258125 16.896875 10.51625 16.79375 11.8125 16.6875 C14.3296463 16.35723612 15.84493363 16.08928064 18.0625 14.8125 C19.50723717 12.01934148 18.77083666 9.95487388 18 7 C15.13255824 4.13255824 10.03852125 5.3671383 6 5 C6 14.9 6 24.8 6 35 C4.35 35 2.7 35 1 35 C0.505 17.675 0.505 17.675 0 0 Z " fill="#000000" transform="translate(1220,329)"/>
<path d="M0 0 C7.59 0 15.18 0 23 0 C23 1.65 23 3.3 23 5 C17.39 5 11.78 5 6 5 C6 8.3 6 11.6 6 15 C11.28 15 16.56 15 22 15 C21.67 16.65 21.34 18.3 21 20 C16.05 20 11.1 20 6 20 C6 23.3 6 26.6 6 30 C11.28 30 16.56 30 22 30 C22.33 31.65 22.66 33.3 23 35 C15.41 35 7.82 35 0 35 C0 23.45 0 11.9 0 0 Z " fill="#000000" transform="translate(1248,329)"/>
<path d="M0 0 C5 0 5 0 6.60571289 1.48120117 C7.0568042 2.16158447 7.50789551 2.84196777 7.97265625 3.54296875 C8.47990234 4.28740234 8.98714844 5.03183594 9.50976562 5.79882812 C10.02216797 6.58708984 10.53457031 7.37535156 11.0625 8.1875 C12.09379609 9.72350029 13.12632013 11.25867693 14.16015625 12.79296875 C14.61011963 13.4789917 15.06008301 14.16501465 15.52368164 14.87182617 C17.23153153 17.33376226 19.12821926 19.66027407 21 22 C21.33 15.07 21.66 8.14 22 1 C23.65 0.67 25.3 0.34 27 0 C28.47360305 2.94720609 28.14233596 5.93035368 28.1328125 9.16015625 C28.13424759 10.21776405 28.13424759 10.21776405 28.13571167 11.29673767 C28.13639229 12.78710011 28.13454621 14.27746552 28.13037109 15.76782227 C28.12501318 18.05687058 28.13032409 20.34572337 28.13671875 22.63476562 C28.1360581 24.0807296 28.13477722 25.52669346 28.1328125 26.97265625 C28.13483673 27.66118179 28.13686096 28.34970734 28.13894653 29.05909729 C28.11495764 33.88504236 28.11495764 33.88504236 27 35 C24.75 35.47265625 24.75 35.47265625 22 35 C20.07167232 32.82761834 18.56397433 30.84944167 17 28.4375 C16.5875 27.82841797 16.175 27.21933594 15.75 26.59179688 C14.96079701 25.42648933 14.17856248 24.25640378 13.40625 23.07983398 C11.33151134 20.01130991 9.15296625 17.01415275 7 14 C6.67 20.93 6.34 27.86 6 35 C4.02 35 2.04 35 0 35 C0 23.45 0 11.9 0 0 Z " fill="#000000" transform="translate(1273,329)"/>
<path d="M0 0 C4.85254948 1.59170506 8.30511275 4.6881804 11 9 C11 10.32 11 11.64 11 13 C8.8125 13.375 8.8125 13.375 6 13 C3.3125 10.0625 3.3125 10.0625 1 7 C-2.46527824 5.26736088 -6.21107028 5.5280226 -10 6 C-13.08954459 7.77484476 -14.53214578 9.23442037 -16.375 12.25 C-17.39258717 16.72738355 -17.20237738 20.76838758 -15.0234375 24.8125 C-13.02162253 27.49880654 -11.25954682 28.90408052 -8.125 30.0625 C-4.05760013 29.981152 -1.55067236 28.97259575 2 27 C2.70125 26.113125 3.4025 25.22625 4.125 24.3125 C6 22 6 22 8.75 21.6875 C9.4925 21.790625 10.235 21.89375 11 22 C10.92478893 25.15886495 10.62522327 27.30084288 8.48046875 29.69921875 C2.78392195 34.65221628 -1.54854731 35.3587914 -9.05078125 35.27734375 C-13.0555441 34.90073691 -15.09498443 33.75976479 -18 31 C-22.43038332 25.2524757 -23.48889778 21.21124231 -23 14 C-19.12421195 2.168647 -11.72112203 -1.22980684 0 0 Z " fill="#000000" transform="translate(1325,329)"/>
<path d="M0 0 C6.93 0 13.86 0 21 0 C21 1.65 21 3.3 21 5 C16.05 5 11.1 5 6 5 C6 8.3 6 11.6 6 15 C10.62 15 15.24 15 20 15 C20 16.65 20 18.3 20 20 C15.38 20 10.76 20 6 20 C6 23.3 6 26.6 6 30 C10.62 30 15.24 30 20 30 C20.33 31.65 20.66 33.3 21 35 C14.07 35 7.14 35 0 35 C0 23.45 0 11.9 0 0 Z " fill="#000000" transform="translate(1339,329)"/>
</svg>
