<?xml version="1.0" encoding="UTF-8"?>
<svg version="1.1" xmlns="http://www.w3.org/2000/svg" width="770" height="770">
<path d="M0 0 C254.1 0 508.2 0 770 0 C770 254.1 770 508.2 770 770 C515.9 770 261.8 770 0 770 C0 515.9 0 261.8 0 0 Z " fill="#FDFDFD" transform="translate(0,0)"/>
<path d="M0 0 C-1.18142578 0.87398437 -1.18142578 0.87398437 -2.38671875 1.765625 C-10.75402429 8.03136869 -18.46624649 14.76143615 -26 22 C-26.60102539 22.56847656 -27.20205078 23.13695312 -27.82128906 23.72265625 C-48.9024467 43.71625026 -64.16278717 68.20065855 -79 93 C-78.49549316 92.75765625 -77.99098633 92.5153125 -77.47119141 92.265625 C-75.19102216 91.17307673 -72.90806831 90.08647624 -70.625 89 C-69.8309375 88.6184375 -69.036875 88.236875 -68.21875 87.84375 C-67.45820312 87.4828125 -66.69765625 87.121875 -65.9140625 86.75 C-64.8614624 86.24726563 -64.8614624 86.24726563 -63.78759766 85.734375 C-62 85 -62 85 -60 85 C-60 85.66 -60 86.32 -60 87 C-61.92463902 88.62297147 -63.85459621 90.12986758 -65.875 91.625 C-66.46635742 92.07883057 -67.05771484 92.53266113 -67.66699219 93.00024414 C-70.31898894 95.03217743 -72.95486153 96.97120038 -75.7734375 98.76953125 C-95.04729599 111.75050534 -102.20176931 150.69614789 -106.56469727 172.36743164 C-106.90053393 174.11191212 -107.23039761 175.85755705 -107.55322266 177.60449219 C-108.07709116 180.41334341 -108.66130627 183.20686915 -109.26049805 186.00048828 C-113.17075638 206.02798635 -113.33261168 226.17091478 -113.40471697 246.49988079 C-113.42057787 250.39825758 -113.44729187 254.29656144 -113.4727478 258.19488525 C-113.51913631 265.54300446 -113.55607068 272.89113802 -113.58942068 280.23932672 C-113.62792815 288.61936233 -113.67726104 296.99932398 -113.72740483 305.37929678 C-113.83012916 322.58614399 -113.91957876 339.79303437 -114 357 C-127.29885135 357.53498792 -140.59511324 357.94256042 -153.90256596 358.19167995 C-160.0838695 358.31131536 -166.25777281 358.47321276 -172.43481445 358.73510742 C-213.62112992 360.43640707 -213.62112992 360.43640707 -221.64227295 354.84451294 C-226.94165355 349.70835294 -229.62694161 343.95356036 -231.88267517 337.01426697 C-233.78748453 331.87556085 -236.92735098 327.56420318 -240 323.0625 C-241.16394957 321.24235652 -242.32225655 319.4185814 -243.47265625 317.58984375 C-244.05031738 316.6757373 -244.62797852 315.76163086 -245.22314453 314.81982422 C-250.2070003 306.91057248 -255.15445688 298.97859045 -260.10009766 291.04541016 C-262.00564702 287.99094822 -263.91436306 284.93848969 -265.82421875 281.88671875 C-271.76190134 272.3979945 -277.68462583 262.90090093 -283.5625 253.375 C-289.15589344 244.31629304 -294.85694301 235.32887152 -300.5859375 226.35546875 C-304.24117714 220.62906424 -307.86701799 214.88430117 -311.47875977 209.13037109 C-316.57434529 201.03688117 -321.79606162 193.02404009 -327 185 C-327.01213028 185.83873405 -327.01213028 185.83873405 -327.02450562 186.69441223 C-327.11187792 192.61784181 -327.21140331 198.54098615 -327.31738281 204.46411133 C-327.35520808 206.66230403 -327.39013314 208.86054893 -327.421875 211.05883789 C-327.58138095 221.97751886 -327.80163132 232.88163562 -328.7890625 243.76171875 C-328.84838959 244.52893753 -328.90771667 245.29615631 -328.96884155 246.08662415 C-329.59035638 252.03737784 -331.71625079 255.00645096 -336.12109375 258.8515625 C-336.88550781 259.43679688 -337.64992188 260.02203125 -338.4375 260.625 C-341.87168455 263.30215992 -345.23295904 266.03207617 -348.53076172 268.87597656 C-354.45164991 273.9790024 -360.56093997 278.73303079 -366.84619141 283.37792969 C-371.6724434 286.96051579 -376.35892483 290.68124987 -381 294.5 C-386.95772588 299.40107537 -393.04601666 304.07564736 -399.24609375 308.66503906 C-405.36254194 313.21574977 -411.2090981 318.04263701 -417 323 C-409.42065962 320.15883885 -402.18429979 316.72573584 -394.93484497 313.1423645 C-377.52754627 304.55169608 -359.80920934 296.71473318 -342 289 C-340.83844693 292.48465922 -341.12115757 292.91278139 -342.58984375 296.10546875 C-342.95795166 296.91628906 -343.32605957 297.72710937 -343.70532227 298.5625 C-344.11194092 299.42875 -344.51855957 300.295 -344.9375 301.1875 C-345.34991943 302.08082031 -345.76233887 302.97414063 -346.18725586 303.89453125 C-347.44513555 306.60269775 -348.71979818 309.30232412 -350 312 C-350.35868164 312.7626416 -350.71736328 313.5252832 -351.08691406 314.31103516 C-365.58479292 344.97425824 -391.33397121 373.39766076 -419 393 C-419.65194336 393.46921875 -420.30388672 393.9384375 -420.97558594 394.421875 C-449.64849099 414.89290162 -482.598134 427.81480014 -517 435 C-517 434.34 -517 433.68 -517 433 C-515.50674566 431.81149144 -513.95098717 430.7013947 -512.375 429.625 C-494.55560979 416.93923693 -479.41689476 401.72162491 -466.53173828 384.08740234 C-465.05948867 382.0810692 -463.56373594 380.09500963 -462.05859375 378.11328125 C-435.22814209 342.58867359 -421.87504332 302.43186036 -413.625 259.25 C-413.38644287 258.01620605 -413.14788574 256.78241211 -412.90209961 255.51123047 C-409.05973484 234.56221895 -408.66789268 213.71526328 -408.59528303 192.49047375 C-408.57943235 188.45196224 -408.55271483 184.41352131 -408.5272522 180.37506104 C-408.48084624 172.76132115 -408.44392005 165.1475674 -408.41057932 157.53376031 C-408.37208453 148.85143448 -408.32274812 140.1691802 -408.27259517 131.48691511 C-408.16984474 113.65799609 -408.08040324 95.82903313 -408 78 C-394.38776044 77.58189278 -380.77706031 77.26260756 -367.15969467 77.06738091 C-360.8352674 76.97364727 -354.51524861 76.84668239 -348.19335938 76.64208984 C-342.0850776 76.44566044 -335.9810169 76.33872666 -329.86981964 76.29220963 C-327.54571289 76.25909224 -325.22182341 76.19440541 -322.8995285 76.09685898 C-305.17973753 75.3825478 -305.17973753 75.3825478 -299.85206604 79.76810646 C-296.09582357 84.04873643 -293.43638899 88.78938736 -291.00577641 93.9162178 C-289.75467258 96.50827291 -288.23865779 98.8662488 -286.625 101.24609375 C-285.74757084 102.64170489 -284.87249483 104.03879876 -284 105.4375 C-282.99879713 107.03261436 -281.99749205 108.62766457 -280.99609375 110.22265625 C-280.50093262 111.0130127 -280.00577148 111.80336914 -279.49560547 112.61767578 C-278.01461525 114.97671962 -276.52636336 117.33099698 -275.03515625 119.68359375 C-269.32239731 128.69691162 -263.66680965 137.74335843 -258.06005859 146.82299805 C-253.95999604 153.45972464 -249.82859986 160.07631776 -245.6875 166.6875 C-237.02112267 180.53245712 -228.47364332 194.44996292 -219.93115234 208.37158203 C-218.54498775 210.63033577 -217.1583487 212.88879842 -215.77124023 215.14697266 C-214.48973497 217.23323041 -213.2091823 219.32007385 -211.92993164 221.40771484 C-206.04080732 230.99363291 -200.02040003 240.49617541 -194 250 C-193.98541748 248.70078613 -193.97083496 247.40157227 -193.95581055 246.06298828 C-193.89699178 241.15355505 -193.81978006 236.24454139 -193.73754883 231.33544922 C-193.70468643 229.22744656 -193.67654003 227.11936406 -193.65356445 225.01123047 C-193.53680465 214.57240714 -193.33645267 204.2502118 -191.64453125 193.9296875 C-191.52945724 193.22280792 -191.41438324 192.51592834 -191.29582214 191.78762817 C-190.23562446 186.02680917 -188.84601352 179.68524511 -183.8046875 176.1484375 C-183.18013672 175.69670166 -182.55558594 175.24496582 -181.91210938 174.77954102 C-180.90374023 174.08429321 -180.90374023 174.08429321 -179.875 173.375 C-178.42373811 172.33045591 -176.97324216 171.28484699 -175.5234375 170.23828125 C-174.77545898 169.70541504 -174.02748047 169.17254883 -173.25683594 168.62353516 C-169.61815606 166.00592144 -166.057722 163.28864816 -162.5 160.5625 C-161.79560791 160.02431641 -161.09121582 159.48613281 -160.36547852 158.93164062 C-154.76553302 154.63354638 -149.27620178 150.20897626 -143.81298828 145.73901367 C-137.85077087 140.86197589 -131.80594904 136.09698618 -125.73535156 131.35595703 C-122.73657872 129.0127966 -119.74305044 126.66296316 -116.75 124.3125 C-116.17217773 123.85883057 -115.59435547 123.40516113 -114.99902344 122.93774414 C-109.97494675 118.98892316 -104.9798143 115.00450505 -100 111 C-109.62240468 114.79064427 -118.7935913 119.31839557 -128 124 C-143.83897756 132.04097108 -159.79832578 139.7153244 -176 147 C-177.14644043 143.66051183 -176.90575976 142.01684893 -175.4453125 138.83203125 C-175.08236084 138.02958984 -174.71940918 137.22714844 -174.34545898 136.40039062 C-173.94270752 135.54638672 -173.53995605 134.69238281 -173.125 133.8125 C-172.71515869 132.92626953 -172.30531738 132.04003906 -171.88305664 131.12695312 C-160.82450622 107.47564484 -147.0931419 86.8283864 -129 68 C-127.71416016 66.65228516 -127.71416016 66.65228516 -126.40234375 65.27734375 C-120.63061597 59.35926471 -114.47086548 54.13367796 -108 49 C-107.21109375 48.34386719 -106.4221875 47.68773437 -105.609375 47.01171875 C-78.65539251 24.74344514 -45.84142481 10.04975445 -12.3125 0.9375 C-11.52875 0.72125977 -10.745 0.50501953 -9.9375 0.28222656 C-6.22280739 -0.67613774 -3.66228998 -1.12931153 0 0 Z " fill="#010101" transform="translate(647,164)"/>
<path d="M0 0 C0.66 0.33 1.32 0.66 2 1 C-1.10138699 5.22916408 -2.70579708 7.16407322 -8 8 C-5.33333333 5.33333333 -2.66666667 2.66666667 0 0 Z " fill="#DAD9DD" transform="translate(237,480)"/>
<path d="M0 0 C0 0.66 0 1.32 0 2 C-1.75 3.2890625 -1.75 3.2890625 -4 4.625 C-4.7425 5.07101563 -5.485 5.51703125 -6.25 5.9765625 C-6.8275 6.31429687 -7.405 6.65203125 -8 7 C-8 5.68 -8 4.36 -8 3 C-2.25 0 -2.25 0 0 0 Z " fill="#2C2F32" transform="translate(587,249)"/>
</svg>
